<!--?xml version="1.0" encoding="UTF-8"?-->
<svg id="Camada_1" xmlns="http://www.w3.org/2000/svg" version="1.1" viewBox="0 0 1000 1000" width="1000" height="1000">
  <path d="M302.5,508.8l-77.4-75.8,77.8-65.6,220.1,217.6,317.8-304c1.2-.5,2.3,2.5,2.9,3.4,42.7,67.8,60.5,166,52.5,245.1-23.5,233.6-252.5,406.3-484.3,351.8C138.9,817.1,10.8,504.9,163.3,266.6,304.8,45.6,626.1,21.9,798.5,220.3c2,2.3,13.3,15.5,13,17.1l-43.3,44.3c-48.5-60.9-115.1-105.1-191.2-123.2-241-57.5-455.5,147.5-413,390.7,15.3,87.3,66.4,164.9,138.5,215.5v-255.8ZM700.7,508v252.6c60.6-44.7,105.7-110.3,125.1-183.4,14.5-54.9,14.9-111,2.4-166.3-2.8-12.2-6.4-24.1-10.1-36.1l-1.6-.5-115.7,133.7ZM386.3,593v217.9c48.5,17.6,99.7,23.8,151.1,17.5,28-3.5,56.7-11.2,82.7-21.8v-213.5l-113,119.6-120.8-119.6Z" fill="white" class="svg-elem-1"></path>
</svg>